<svg width="401" height="310" viewBox="0 0 401 310" fill="none" xmlns="http://www.w3.org/2000/svg">
<path d="M0.679688 207.757C10.1797 216.557 48.1797 202.108 57.6797 179.426C67.1797 156.745 76.6797 127.928 86.1797 126.202C95.6797 124.476 105.18 149.842 114.68 150.035C124.18 150.229 133.68 125.25 143.18 116.129C152.68 107.007 162.18 113.743 171.68 116.478C181.18 119.213 190.68 110.948 200.18 103.992C209.68 97.035 219.18 111.387 228.68 101.933C238.18 92.4793 247.68 86.2205 257.18 95.6931C266.68 105.166 276.18 110.37 285.68 108.989C295.18 107.609 304.68 79.6433 314.18 71.3675C323.68 63.0917 333.18 74.5053 342.68 83.7689C352.18 93.0325 361.68 100.146 371.18 85.8692C380.68 71.5923 390.18 35.9248 394.93 18.0911L399.68 0.257324" stroke="#D7C6A8" stroke-width="2"/>
<line opacity="0.4" x1="380.43" y1="309.257" x2="380.43" y2="80.2573" stroke="url(#paint0_linear_2103_481)" stroke-width="0.5" stroke-dasharray="5 5"/>
<rect x="371.68" y="57.2573" width="18" height="18" rx="2" stroke="white" stroke-opacity="0.4" stroke-width="0.5" stroke-dasharray="5 5"/>
<circle cx="380.68" cy="66.2573" r="3" fill="white"/>
<line opacity="0.4" x1="258.43" y1="309.257" x2="258.43" y2="110.257" stroke="url(#paint1_linear_2103_481)" stroke-width="0.5" stroke-dasharray="5 5"/>
<path d="M249.68 89.2573C249.68 88.1528 250.575 87.2573 251.68 87.2573H265.68C266.784 87.2573 267.68 88.1528 267.68 89.2573V103.257C267.68 104.362 266.784 105.257 265.68 105.257H251.68C250.575 105.257 249.68 104.362 249.68 103.257V89.2573Z" stroke="white" stroke-opacity="0.4" stroke-width="0.5" stroke-dasharray="5 5"/>
<circle cx="258.68" cy="96.2573" r="3" fill="white"/>
<line opacity="0.4" x1="138.43" y1="309.257" x2="138.43" y2="134.257" stroke="url(#paint2_linear_2103_481)" stroke-width="0.5" stroke-dasharray="5 5"/>
<path d="M129.68 114.257C129.68 113.153 130.575 112.257 131.68 112.257H145.68C146.784 112.257 147.68 113.153 147.68 114.257V128.257C147.68 129.362 146.784 130.257 145.68 130.257H131.68C130.575 130.257 129.68 129.362 129.68 128.257V114.257Z" stroke="white" stroke-opacity="0.4" stroke-width="0.5" stroke-dasharray="5 5"/>
<circle cx="138.68" cy="121.257" r="3" fill="white"/>
<line opacity="0.4" x1="20.4297" y1="309.257" x2="20.4297" y2="221.257" stroke="url(#paint3_linear_2103_481)" stroke-width="0.5" stroke-dasharray="5 5"/>
<path d="M11.6797 201.257C11.6797 200.153 12.5751 199.257 13.6797 199.257H27.6797C28.7843 199.257 29.6797 200.153 29.6797 201.257V215.257C29.6797 216.362 28.7843 217.257 27.6797 217.257H13.6797C12.5751 217.257 11.6797 216.362 11.6797 215.257V201.257Z" stroke="white" stroke-opacity="0.4" stroke-width="0.5" stroke-dasharray="5 5"/>
<circle cx="20.6797" cy="208.257" r="3" fill="white"/>
<defs>
<linearGradient id="paint0_linear_2103_481" x1="381.18" y1="80.2573" x2="381.18" y2="309.257" gradientUnits="userSpaceOnUse">
<stop stop-color="white"/>
<stop offset="1" stop-color="white" stop-opacity="0"/>
</linearGradient>
<linearGradient id="paint1_linear_2103_481" x1="259.18" y1="110.257" x2="259.18" y2="309.257" gradientUnits="userSpaceOnUse">
<stop stop-color="white"/>
<stop offset="1" stop-color="white" stop-opacity="0"/>
</linearGradient>
<linearGradient id="paint2_linear_2103_481" x1="139.18" y1="134.257" x2="139.18" y2="309.257" gradientUnits="userSpaceOnUse">
<stop stop-color="white"/>
<stop offset="1" stop-color="white" stop-opacity="0"/>
</linearGradient>
<linearGradient id="paint3_linear_2103_481" x1="21.1797" y1="221.257" x2="21.1797" y2="309.257" gradientUnits="userSpaceOnUse">
<stop stop-color="white"/>
<stop offset="1" stop-color="white" stop-opacity="0"/>
</linearGradient>
</defs>
</svg>
