<svg width="371" height="222" viewBox="0 0 371 222" fill="none" xmlns="http://www.w3.org/2000/svg">
<g clip-path="url(#clip0_566_135)">
<rect width="372" height="222" fill="#1F1F1F"/>
<g filter="url(#filter0_f_566_135)">
<path d="M52.6865 167.251L51.5508 176.138L32 173.639L33.1367 164.752L52.6865 167.251ZM56.1377 151.778L53.959 160.469L34.8418 155.675L37.0205 146.985L56.1377 151.778ZM61.748 135.943L58.5068 144.295L40.1328 137.164L43.374 128.812L61.748 135.943ZM68.8271 121.752L64.6162 129.659L47.2197 120.396L51.4307 112.488L68.8271 121.752ZM77.8408 108.045L72.7041 115.385L56.5566 104.084L61.6934 96.7441L77.8408 108.045ZM88.3789 95.5928L82.3984 102.263L67.7236 89.1064L73.7031 82.4355L88.3789 95.5928ZM100.305 84.5098L93.5693 90.417L80.5732 75.5986L87.3086 69.6924L100.305 84.5098ZM113.503 74.9072L106.107 79.9629L94.9844 63.6924L102.38 58.6357L113.503 74.9072ZM127.886 66.8994L119.932 71.0225L110.861 53.5244L118.815 49.4014L127.886 66.8994ZM143.39 60.6172L134.99 63.7334L128.135 45.2549L136.534 42.1387L143.39 60.6172ZM228.557 39.8203L223.69 58.9189L215.009 56.708L219.875 37.6084L228.557 39.8203ZM158.953 56.4434L150.239 58.5225L145.664 39.3516L154.378 37.2725L158.953 56.4434ZM211.108 35.9541L208.534 55.4941L199.652 54.3242L202.227 34.7842L211.108 35.9541ZM175.467 54.1035L166.564 55.1025L164.365 35.5166L173.269 34.5176L175.467 54.1035ZM192.603 34.1035L192.374 53.8115L183.416 53.708L183.645 34L192.603 34.1035Z" fill="url(#paint0_linear_566_135)"/>
<g opacity="0.2">
<path d="M238.649 43.0356L246.989 46.3083L239.789 64.6554L231.449 61.3827L238.649 43.0356Z" fill="url(#paint1_linear_566_135)"/>
<path d="M255.272 50.1116L263.164 54.3517L253.836 71.7137L245.944 67.4737L255.272 50.1116Z" fill="url(#paint2_linear_566_135)"/>
<path d="M271.625 59.5354L278.946 64.6989L267.586 80.8051L260.265 75.6416L271.625 59.5354Z" fill="url(#paint3_linear_566_135)"/>
<path d="M286.613 70.7828L293.262 76.7873L280.052 91.4145L273.404 85.41L286.613 70.7828Z" fill="url(#paint4_linear_566_135)"/>
<path d="M300.118 83.7244L306.001 90.4812L291.136 103.423L285.253 96.6661L300.118 83.7244Z" fill="url(#paint5_linear_566_135)"/>
<path d="M312.009 98.2364L317.038 105.651L300.727 116.714L295.698 109.3L312.009 98.2364Z" fill="url(#paint6_linear_566_135)"/>
<path d="M322.13 114.189L326.223 122.157L308.692 131.163L304.598 123.194L322.13 114.189Z" fill="url(#paint7_linear_566_135)"/>
<path d="M330.301 131.431L333.385 139.843L314.881 146.628L311.797 138.217L330.301 131.431Z" fill="url(#paint8_linear_566_135)"/>
<path d="M336.159 149.091L338.206 157.813L319.017 162.315L316.971 153.593L336.159 149.091Z" fill="url(#paint9_linear_566_135)"/>
<path d="M339.893 167.696L340.859 176.603L321.264 178.726L320.299 169.82L339.893 167.696Z" fill="url(#paint10_linear_566_135)"/>
</g>
</g>
<path d="M52.6865 167.251L51.5508 176.138L32 173.639L33.1367 164.752L52.6865 167.251ZM56.1377 151.778L53.959 160.469L34.8418 155.675L37.0205 146.985L56.1377 151.778ZM61.748 135.943L58.5068 144.295L40.1328 137.164L43.374 128.812L61.748 135.943ZM68.8271 121.752L64.6162 129.659L47.2197 120.396L51.4307 112.488L68.8271 121.752ZM77.8408 108.045L72.7041 115.385L56.5566 104.084L61.6934 96.7441L77.8408 108.045ZM88.3789 95.5928L82.3984 102.263L67.7236 89.1064L73.7031 82.4355L88.3789 95.5928ZM100.305 84.5098L93.5693 90.417L80.5732 75.5986L87.3086 69.6924L100.305 84.5098ZM113.503 74.9072L106.107 79.9629L94.9844 63.6924L102.38 58.6357L113.503 74.9072ZM127.886 66.8994L119.932 71.0225L110.861 53.5244L118.815 49.4014L127.886 66.8994ZM143.39 60.6172L134.99 63.7334L128.135 45.2549L136.534 42.1387L143.39 60.6172ZM228.557 39.8203L223.69 58.9189L215.009 56.708L219.875 37.6084L228.557 39.8203ZM158.953 56.4434L150.239 58.5225L145.664 39.3516L154.378 37.2725L158.953 56.4434ZM211.108 35.9541L208.534 55.4941L199.652 54.3242L202.227 34.7842L211.108 35.9541ZM175.467 54.1035L166.564 55.1025L164.365 35.5166L173.269 34.5176L175.467 54.1035ZM192.603 34.1035L192.374 53.8115L183.416 53.708L183.645 34L192.603 34.1035Z" fill="url(#paint11_linear_566_135)"/>
<g opacity="0.2">
<path d="M238.649 43.0356L246.989 46.3083L239.789 64.6554L231.449 61.3827L238.649 43.0356Z" fill="url(#paint12_linear_566_135)"/>
<path d="M255.272 50.1116L263.164 54.3517L253.836 71.7137L245.944 67.4737L255.272 50.1116Z" fill="url(#paint13_linear_566_135)"/>
<path d="M271.625 59.5354L278.946 64.6989L267.586 80.8051L260.265 75.6416L271.625 59.5354Z" fill="url(#paint14_linear_566_135)"/>
<path d="M286.613 70.7828L293.262 76.7873L280.052 91.4145L273.404 85.41L286.613 70.7828Z" fill="url(#paint15_linear_566_135)"/>
<path d="M300.118 83.7244L306.001 90.4812L291.136 103.423L285.253 96.6661L300.118 83.7244Z" fill="url(#paint16_linear_566_135)"/>
<path d="M312.009 98.2364L317.038 105.651L300.727 116.714L295.698 109.3L312.009 98.2364Z" fill="url(#paint17_linear_566_135)"/>
<path d="M322.13 114.189L326.223 122.157L308.692 131.163L304.598 123.194L322.13 114.189Z" fill="url(#paint18_linear_566_135)"/>
<path d="M330.301 131.431L333.385 139.843L314.881 146.628L311.797 138.217L330.301 131.431Z" fill="url(#paint19_linear_566_135)"/>
<path d="M336.159 149.091L338.206 157.813L319.017 162.315L316.971 153.593L336.159 149.091Z" fill="url(#paint20_linear_566_135)"/>
<path d="M339.893 167.696L340.859 176.603L321.264 178.726L320.299 169.82L339.893 167.696Z" fill="url(#paint21_linear_566_135)"/>
</g>
<rect x="371" y="222" width="372" height="134" transform="rotate(-180 371 222)" fill="url(#paint22_linear_566_135)"/>
<g opacity="0.3" filter="url(#filter1_f_566_135)">
<circle cx="186" cy="299" r="165" fill="url(#paint23_radial_566_135)"/>
</g>
</g>
<defs>
<filter id="filter0_f_566_135" x="26" y="28" width="320.858" height="156.726" filterUnits="userSpaceOnUse" color-interpolation-filters="sRGB">
<feFlood flood-opacity="0" result="BackgroundImageFix"/>
<feBlend mode="normal" in="SourceGraphic" in2="BackgroundImageFix" result="shape"/>
<feGaussianBlur stdDeviation="3" result="effect1_foregroundBlur_566_135"/>
</filter>
<filter id="filter1_f_566_135" x="-57.6063" y="55.3937" width="487.213" height="487.213" filterUnits="userSpaceOnUse" color-interpolation-filters="sRGB">
<feFlood flood-opacity="0" result="BackgroundImageFix"/>
<feBlend mode="normal" in="SourceGraphic" in2="BackgroundImageFix" result="shape"/>
<feGaussianBlur stdDeviation="39.3031" result="effect1_foregroundBlur_566_135"/>
</filter>
<linearGradient id="paint0_linear_566_135" x1="228.557" y1="105.069" x2="32" y2="105.069" gradientUnits="userSpaceOnUse">
<stop stop-color="white"/>
<stop offset="0.5" stop-color="white"/>
<stop offset="1" stop-color="white" stop-opacity="0"/>
</linearGradient>
<linearGradient id="paint1_linear_566_135" x1="341.285" y1="189.015" x2="31.2812" y2="189.015" gradientUnits="userSpaceOnUse">
<stop stop-color="white" stop-opacity="0"/>
<stop offset="0.5" stop-color="white"/>
<stop offset="1" stop-color="white"/>
</linearGradient>
<linearGradient id="paint2_linear_566_135" x1="341.285" y1="189.015" x2="31.2812" y2="189.015" gradientUnits="userSpaceOnUse">
<stop stop-color="white" stop-opacity="0"/>
<stop offset="0.5" stop-color="white"/>
<stop offset="1" stop-color="white"/>
</linearGradient>
<linearGradient id="paint3_linear_566_135" x1="341.285" y1="189.015" x2="31.2812" y2="189.015" gradientUnits="userSpaceOnUse">
<stop stop-color="white" stop-opacity="0"/>
<stop offset="0.5" stop-color="white"/>
<stop offset="1" stop-color="white"/>
</linearGradient>
<linearGradient id="paint4_linear_566_135" x1="341.285" y1="189.015" x2="31.2812" y2="189.015" gradientUnits="userSpaceOnUse">
<stop stop-color="white" stop-opacity="0"/>
<stop offset="0.5" stop-color="white"/>
<stop offset="1" stop-color="white"/>
</linearGradient>
<linearGradient id="paint5_linear_566_135" x1="341.285" y1="189.015" x2="31.2812" y2="189.015" gradientUnits="userSpaceOnUse">
<stop stop-color="white" stop-opacity="0"/>
<stop offset="0.5" stop-color="white"/>
<stop offset="1" stop-color="white"/>
</linearGradient>
<linearGradient id="paint6_linear_566_135" x1="341.285" y1="189.015" x2="31.2812" y2="189.015" gradientUnits="userSpaceOnUse">
<stop stop-color="white" stop-opacity="0"/>
<stop offset="0.5" stop-color="white"/>
<stop offset="1" stop-color="white"/>
</linearGradient>
<linearGradient id="paint7_linear_566_135" x1="341.285" y1="189.015" x2="31.2812" y2="189.015" gradientUnits="userSpaceOnUse">
<stop stop-color="white" stop-opacity="0"/>
<stop offset="0.5" stop-color="white"/>
<stop offset="1" stop-color="white"/>
</linearGradient>
<linearGradient id="paint8_linear_566_135" x1="341.285" y1="189.015" x2="31.2812" y2="189.015" gradientUnits="userSpaceOnUse">
<stop stop-color="white" stop-opacity="0"/>
<stop offset="0.5" stop-color="white"/>
<stop offset="1" stop-color="white"/>
</linearGradient>
<linearGradient id="paint9_linear_566_135" x1="341.285" y1="189.015" x2="31.2812" y2="189.015" gradientUnits="userSpaceOnUse">
<stop stop-color="white" stop-opacity="0"/>
<stop offset="0.5" stop-color="white"/>
<stop offset="1" stop-color="white"/>
</linearGradient>
<linearGradient id="paint10_linear_566_135" x1="341.285" y1="189.015" x2="31.2812" y2="189.015" gradientUnits="userSpaceOnUse">
<stop stop-color="white" stop-opacity="0"/>
<stop offset="0.5" stop-color="white"/>
<stop offset="1" stop-color="white"/>
</linearGradient>
<linearGradient id="paint11_linear_566_135" x1="228.557" y1="105.069" x2="32" y2="105.069" gradientUnits="userSpaceOnUse">
<stop stop-color="white"/>
<stop offset="0.5" stop-color="white"/>
<stop offset="1" stop-color="white" stop-opacity="0"/>
</linearGradient>
<linearGradient id="paint12_linear_566_135" x1="341.285" y1="189.015" x2="31.2812" y2="189.015" gradientUnits="userSpaceOnUse">
<stop stop-color="white" stop-opacity="0"/>
<stop offset="0.5" stop-color="white"/>
<stop offset="1" stop-color="white"/>
</linearGradient>
<linearGradient id="paint13_linear_566_135" x1="341.285" y1="189.015" x2="31.2812" y2="189.015" gradientUnits="userSpaceOnUse">
<stop stop-color="white" stop-opacity="0"/>
<stop offset="0.5" stop-color="white"/>
<stop offset="1" stop-color="white"/>
</linearGradient>
<linearGradient id="paint14_linear_566_135" x1="341.285" y1="189.015" x2="31.2812" y2="189.015" gradientUnits="userSpaceOnUse">
<stop stop-color="white" stop-opacity="0"/>
<stop offset="0.5" stop-color="white"/>
<stop offset="1" stop-color="white"/>
</linearGradient>
<linearGradient id="paint15_linear_566_135" x1="341.285" y1="189.015" x2="31.2812" y2="189.015" gradientUnits="userSpaceOnUse">
<stop stop-color="white" stop-opacity="0"/>
<stop offset="0.5" stop-color="white"/>
<stop offset="1" stop-color="white"/>
</linearGradient>
<linearGradient id="paint16_linear_566_135" x1="341.285" y1="189.015" x2="31.2812" y2="189.015" gradientUnits="userSpaceOnUse">
<stop stop-color="white" stop-opacity="0"/>
<stop offset="0.5" stop-color="white"/>
<stop offset="1" stop-color="white"/>
</linearGradient>
<linearGradient id="paint17_linear_566_135" x1="341.285" y1="189.015" x2="31.2812" y2="189.015" gradientUnits="userSpaceOnUse">
<stop stop-color="white" stop-opacity="0"/>
<stop offset="0.5" stop-color="white"/>
<stop offset="1" stop-color="white"/>
</linearGradient>
<linearGradient id="paint18_linear_566_135" x1="341.285" y1="189.015" x2="31.2812" y2="189.015" gradientUnits="userSpaceOnUse">
<stop stop-color="white" stop-opacity="0"/>
<stop offset="0.5" stop-color="white"/>
<stop offset="1" stop-color="white"/>
</linearGradient>
<linearGradient id="paint19_linear_566_135" x1="341.285" y1="189.015" x2="31.2812" y2="189.015" gradientUnits="userSpaceOnUse">
<stop stop-color="white" stop-opacity="0"/>
<stop offset="0.5" stop-color="white"/>
<stop offset="1" stop-color="white"/>
</linearGradient>
<linearGradient id="paint20_linear_566_135" x1="341.285" y1="189.015" x2="31.2812" y2="189.015" gradientUnits="userSpaceOnUse">
<stop stop-color="white" stop-opacity="0"/>
<stop offset="0.5" stop-color="white"/>
<stop offset="1" stop-color="white"/>
</linearGradient>
<linearGradient id="paint21_linear_566_135" x1="341.285" y1="189.015" x2="31.2812" y2="189.015" gradientUnits="userSpaceOnUse">
<stop stop-color="white" stop-opacity="0"/>
<stop offset="0.5" stop-color="white"/>
<stop offset="1" stop-color="white"/>
</linearGradient>
<linearGradient id="paint22_linear_566_135" x1="557" y1="222" x2="557" y2="356" gradientUnits="userSpaceOnUse">
<stop stop-color="#202020"/>
<stop offset="1" stop-color="#202020" stop-opacity="0"/>
</linearGradient>
<radialGradient id="paint23_radial_566_135" cx="0" cy="0" r="1" gradientUnits="userSpaceOnUse" gradientTransform="translate(186 299) rotate(90) scale(165)">
<stop stop-color="white"/>
<stop offset="1" stop-color="white" stop-opacity="0"/>
</radialGradient>
<clipPath id="clip0_566_135">
<rect width="372" height="222" fill="white"/>
</clipPath>
</defs>
</svg>
