<svg width="371" height="222" viewBox="0 0 371 222" fill="none" xmlns="http://www.w3.org/2000/svg">
<g clip-path="url(#clip0_566_260)">
<rect width="372" height="222" fill="#1F1F1F"/>
<g filter="url(#filter0_dddddd_566_260)">
<path d="M188.597 53.0523L188.626 53.1089L188.639 53.1685L190.888 63.8694L190.89 63.8831L190.893 63.8977L193.141 79.6579L193.143 79.6676L195.391 98.6736L195.392 98.6766L197.64 118.832L199.887 137.993L202.132 154.234L204.373 166.034L206.53 172.228L208.006 172.722L210.016 168.576L212.251 159.474L214.497 147.098L216.744 133.015L218.992 118.813L218.993 118.805L221.242 105.954L221.244 105.944L221.247 105.935L223.495 95.621L223.5 95.5995L223.506 95.579L225.755 88.6041L225.775 88.5387L225.815 88.4821L228.064 85.2118L228.267 84.9142L228.656 84.9786L230.905 85.3455L231.169 85.3894L233.547 89.1536L233.574 89.1945L233.591 89.2394L235.839 95.2511L235.845 95.2657L235.849 95.2804L238.098 102.833L238.1 102.842L240.349 110.968L242.59 118.741L244.833 125.433L247.051 130.45L249.201 133.484L251.119 134.521L252.982 134.046L255.085 132.152L257.289 129.175L259.531 125.617L261.778 121.975L261.783 121.967L261.789 121.958L264.037 118.626L264.051 118.607L264.065 118.588L266.314 115.861L266.342 115.827L266.375 115.798L268.624 113.848L268.678 113.801L268.745 113.768L270.993 112.658L271.083 112.613L271.184 112.599L273.528 112.27L275.874 112.648L275.939 112.658L276.001 112.682L278.249 113.55L278.282 113.562L278.313 113.579L280.572 114.768L280.584 114.774L282.832 116.083L285.05 117.338L287.262 118.431L289.459 119.274L291.635 119.836L293.814 120.125L296.001 120.173L298.198 120.028L300.415 119.749L302.652 119.395L304.895 119.024L304.902 119.022L307.151 118.676L307.159 118.675L307.168 118.674L309.416 118.386L309.426 118.385L309.437 118.384L311.685 118.172L311.697 118.171L311.708 118.17L313.957 118.035H313.967L313.977 118.034L316.225 117.972L318.505 117.971L320.754 118.014H320.762L323.01 118.086H323.014L327.511 118.251L329.756 118.324L332 118.381L331.967 119.381L329.718 119.322H329.714L327.465 119.249H327.463L322.966 119.084L320.72 119.014L318.48 118.971H316.26L316.261 118.972L314.021 119.032L311.792 119.166L309.578 119.376L307.347 119.66L307.348 119.661L305.106 120.004L302.859 120.378L302.854 120.379L300.606 120.734L300.596 120.736L300.586 120.737L298.337 121.021L298.317 121.023L298.298 121.024L296.05 121.172L296.022 121.174L295.993 121.173L293.744 121.124H293.709L293.673 121.119L291.424 120.819L291.387 120.814L289.1 120.224L289.066 120.215L289.032 120.202L286.784 119.339L286.758 119.329L286.733 119.316L284.485 118.208L284.469 118.2L284.455 118.192L282.206 116.919L282.201 116.916L279.974 115.619L277.753 114.449L275.601 113.62L273.515 113.283L271.463 113.571L269.372 114.605L267.211 116.478L265.002 119.159L262.77 122.468L260.532 126.096L260.53 126.1L258.282 129.67L258.272 129.685L258.26 129.701L256.012 132.737L255.982 132.778L253.694 134.838L253.59 134.933L253.445 134.97L251.196 135.543L250.953 135.604L250.737 135.488L248.489 134.274L248.375 134.213L246.055 130.94L246.028 130.9L246.009 130.857L243.76 125.771L243.751 125.752L243.744 125.731L241.496 119.022L241.493 119.013L241.49 119.003L239.242 111.208L239.24 111.203L236.994 103.086L234.749 95.5449L232.525 89.5986L230.43 86.2843L228.835 86.0238L226.831 88.9398L224.609 95.8308L222.369 106.104L220.122 118.957L217.874 133.153L215.626 147.245L215.623 147.255L213.375 159.646L213.373 159.66L213.369 159.673L211.121 168.831L211.11 168.877L211.088 168.921L208.625 174L205.863 173.074L205.602 172.987L203.272 166.298L203.261 166.267L203.256 166.235L201.007 154.398L201.005 154.387L201.004 154.376L198.755 138.113L198.754 138.105L196.506 118.932L196.504 118.93L194.257 98.7771L192.01 79.7818L189.761 64.0217L187.53 53.4115L185.975 50.4164V48L188.597 53.0523Z" stroke="url(#paint0_linear_566_260)" stroke-width="2"/>
<path d="M183.403 53.0523L183.374 53.1089L183.361 53.1685L181.112 63.8694L181.11 63.8831L181.107 63.8977L178.859 79.6579L178.857 79.6676L176.609 98.6736L176.608 98.6766L174.36 118.832L172.113 137.993L169.868 154.234L167.627 166.034L165.47 172.228L163.994 172.722L161.984 168.576L159.749 159.474L157.503 147.098L155.256 133.015L153.008 118.813L153.006 118.805L150.758 105.954L150.756 105.944L150.753 105.935L148.505 95.621L148.5 95.5995L148.494 95.579L146.245 88.6041L146.225 88.5387L146.185 88.4821L143.936 85.2118L143.733 84.9142L143.344 84.9786L141.095 85.3455L140.831 85.3894L138.453 89.1536L138.426 89.1945L138.409 89.2394L136.161 95.2511L136.155 95.2657L136.151 95.2804L133.902 102.833L133.9 102.842L131.651 110.968L129.41 118.741L127.167 125.433L124.949 130.45L122.799 133.484L120.881 134.521L119.018 134.046L116.915 132.152L114.711 129.175L112.469 125.617L110.222 121.975L110.217 121.967L110.211 121.958L107.963 118.626L107.949 118.607L107.935 118.588L105.686 115.861L105.658 115.827L105.625 115.798L103.376 113.848L103.322 113.801L103.255 113.768L101.007 112.658L100.917 112.613L100.816 112.599L98.4717 112.27L96.1263 112.648L96.0606 112.658L95.9993 112.682L93.7507 113.55L93.7184 113.562L93.6872 113.579L91.4275 114.768L91.4164 114.774L89.1678 116.083L86.9504 117.338L84.7375 118.431L82.5413 119.274L80.3651 119.836L78.1856 120.125L75.9994 120.173L73.802 120.028L71.5847 119.749L69.3483 119.395L67.1053 119.024L67.0975 119.022L64.849 118.676L64.8412 118.675L64.8323 118.674L62.5837 118.386L62.5737 118.385L62.5625 118.384L60.3151 118.172L60.3028 118.171L60.2917 118.17L58.0431 118.035H58.0331L58.0231 118.034L55.7745 117.972L53.4948 117.971L51.2462 118.014H51.2384L48.9898 118.086H48.9865L44.4893 118.251L42.2441 118.324L40 118.381L40.0334 119.381L42.282 119.322H42.2864L44.535 119.249H44.5372L49.0344 119.084L51.2796 119.014L53.5204 118.971H55.74L55.7389 118.972L57.9785 119.032L60.2082 119.166L62.4222 119.376L64.653 119.66L64.6519 119.661L66.8937 120.004L69.1412 120.378L69.1457 120.379L71.3942 120.734L71.4042 120.736L71.4143 120.737L73.6628 121.021L73.6829 121.023L73.7018 121.024L75.9504 121.172L75.9782 121.174L76.0072 121.173L78.2558 121.124H78.2914L78.327 121.119L80.5756 120.819L80.6135 120.814L82.8999 120.224L82.9344 120.215L82.9678 120.202L85.2164 119.339L85.242 119.329L85.2665 119.316L87.5151 118.208L87.5307 118.2L87.5452 118.192L89.7937 116.919L89.7993 116.916L92.0256 115.619L94.2474 114.449L96.3991 113.62L98.4851 113.283L100.537 113.571L102.628 114.605L104.789 116.478L106.998 119.159L109.23 122.468L111.468 126.096L111.47 126.1L113.718 129.67L113.728 129.685L113.739 129.701L115.988 132.737L116.018 132.778L118.306 134.838L118.41 134.933L118.555 134.97L120.804 135.543L121.047 135.604L121.263 135.488L123.511 134.274L123.625 134.213L125.945 130.94L125.972 130.9L125.991 130.857L128.24 125.771L128.249 125.752L128.256 125.731L130.504 119.022L130.507 119.013L130.51 119.003L132.758 111.208L132.76 111.203L135.006 103.086L137.251 95.5449L139.475 89.5986L141.57 86.2843L143.165 86.0238L145.169 88.9398L147.391 95.8308L149.631 106.104L151.878 118.957L154.126 133.153L156.374 147.245L156.377 147.255L158.625 159.646L158.627 159.66L158.631 159.673L160.879 168.831L160.89 168.877L160.912 168.921L163.375 174L166.137 173.074L166.398 172.987L168.728 166.298L168.739 166.267L168.744 166.235L170.993 154.398L170.995 154.387L170.996 154.376L173.245 138.113L173.246 138.105L175.494 118.932L175.496 118.93L177.743 98.7771L179.99 79.7818L182.239 64.0217L184.47 53.4115L186.024 50.4164V48L183.403 53.0523Z" stroke="url(#paint1_linear_566_260)" stroke-width="2"/>
</g>
<rect width="222" height="173" transform="matrix(4.75723e-08 -1 -1 -4.01638e-08 372 222)" fill="url(#paint2_linear_566_260)"/>
<rect x="-3" y="222" width="222" height="173" transform="rotate(-90 -3 222)" fill="url(#paint3_linear_566_260)"/>
</g>
<defs>
<filter id="filter0_dddddd_566_260" x="-104.033" y="-31.4607" width="580.066" height="413.688" filterUnits="userSpaceOnUse" color-interpolation-filters="sRGB">
<feFlood flood-opacity="0" result="BackgroundImageFix"/>
<feColorMatrix in="SourceAlpha" type="matrix" values="0 0 0 0 0 0 0 0 0 0 0 0 0 0 0 0 0 0 127 0" result="hardAlpha"/>
<feOffset dy="1.77104"/>
<feGaussianBlur stdDeviation="1.97859"/>
<feColorMatrix type="matrix" values="0 0 0 0 1 0 0 0 0 1 0 0 0 0 1 0 0 0 0.196802 0"/>
<feBlend mode="normal" in2="BackgroundImageFix" result="effect1_dropShadow_566_260"/>
<feColorMatrix in="SourceAlpha" type="matrix" values="0 0 0 0 0 0 0 0 0 0 0 0 0 0 0 0 0 0 127 0" result="hardAlpha"/>
<feOffset dy="4.25607"/>
<feGaussianBlur stdDeviation="4.75482"/>
<feColorMatrix type="matrix" values="0 0 0 0 1 0 0 0 0 1 0 0 0 0 1 0 0 0 0.282725 0"/>
<feBlend mode="normal" in2="effect1_dropShadow_566_260" result="effect2_dropShadow_566_260"/>
<feColorMatrix in="SourceAlpha" type="matrix" values="0 0 0 0 0 0 0 0 0 0 0 0 0 0 0 0 0 0 127 0" result="hardAlpha"/>
<feOffset dy="8.01379"/>
<feGaussianBlur stdDeviation="8.95291"/>
<feColorMatrix type="matrix" values="0 0 0 0 1 0 0 0 0 1 0 0 0 0 1 0 0 0 0.35 0"/>
<feBlend mode="normal" in2="effect2_dropShadow_566_260" result="effect3_dropShadow_566_260"/>
<feColorMatrix in="SourceAlpha" type="matrix" values="0 0 0 0 0 0 0 0 0 0 0 0 0 0 0 0 0 0 127 0" result="hardAlpha"/>
<feOffset dy="14.2952"/>
<feGaussianBlur stdDeviation="15.9705"/>
<feColorMatrix type="matrix" values="0 0 0 0 1 0 0 0 0 1 0 0 0 0 1 0 0 0 0.417275 0"/>
<feBlend mode="normal" in2="effect3_dropShadow_566_260" result="effect4_dropShadow_566_260"/>
<feColorMatrix in="SourceAlpha" type="matrix" values="0 0 0 0 0 0 0 0 0 0 0 0 0 0 0 0 0 0 127 0" result="hardAlpha"/>
<feOffset dy="26.7377"/>
<feGaussianBlur stdDeviation="29.871"/>
<feColorMatrix type="matrix" values="0 0 0 0 1 0 0 0 0 1 0 0 0 0 1 0 0 0 0.503198 0"/>
<feBlend mode="normal" in2="effect4_dropShadow_566_260" result="effect5_dropShadow_566_260"/>
<feColorMatrix in="SourceAlpha" type="matrix" values="0 0 0 0 0 0 0 0 0 0 0 0 0 0 0 0 0 0 127 0" result="hardAlpha"/>
<feOffset dy="64"/>
<feGaussianBlur stdDeviation="71.5"/>
<feColorMatrix type="matrix" values="0 0 0 0 1 0 0 0 0 1 0 0 0 0 1 0 0 0 0.7 0"/>
<feBlend mode="normal" in2="effect5_dropShadow_566_260" result="effect6_dropShadow_566_260"/>
<feBlend mode="normal" in="SourceGraphic" in2="effect6_dropShadow_566_260" result="shape"/>
</filter>
<linearGradient id="paint0_linear_566_260" x1="337" y1="104" x2="40" y2="104" gradientUnits="userSpaceOnUse">
<stop stop-color="white" stop-opacity="0"/>
<stop offset="0.495192" stop-color="white"/>
<stop offset="1" stop-color="white" stop-opacity="0"/>
</linearGradient>
<linearGradient id="paint1_linear_566_260" x1="337" y1="104" x2="40" y2="104" gradientUnits="userSpaceOnUse">
<stop stop-color="white" stop-opacity="0"/>
<stop offset="0.495192" stop-color="white"/>
<stop offset="1" stop-color="white" stop-opacity="0"/>
</linearGradient>
<linearGradient id="paint2_linear_566_260" x1="111" y1="0" x2="111" y2="173" gradientUnits="userSpaceOnUse">
<stop stop-color="#202020"/>
<stop offset="1" stop-color="#202020" stop-opacity="0"/>
</linearGradient>
<linearGradient id="paint3_linear_566_260" x1="108" y1="222" x2="108" y2="395" gradientUnits="userSpaceOnUse">
<stop stop-color="#202020"/>
<stop offset="1" stop-color="#202020" stop-opacity="0"/>
</linearGradient>
<clipPath id="clip0_566_260">
<rect width="372" height="222" fill="white"/>
</clipPath>
</defs>
</svg>
