<svg width="371" height="222" viewBox="0 0 371 222" fill="none" xmlns="http://www.w3.org/2000/svg">
<g clip-path="url(#clip0_566_301)">
<rect width="372" height="222" fill="#1F1F1F"/>
<g opacity="0.2" filter="url(#filter0_f_566_301)">
<circle cx="186" cy="210" r="165" fill="url(#paint0_radial_566_301)"/>
</g>
<g filter="url(#filter1_f_566_301)">
<foreignObject x="-25.0592" y="26.9408" width="126.118" height="159.118"><div xmlns="http://www.w3.org/1999/xhtml" style="backdrop-filter:blur(26.53px);clip-path:url(#bgblur_1_566_301_clip_path);height:100%;width:100%"></div></foreignObject><path opacity="0.6" data-figma-bg-blur-radius="53.0592" d="M28 90C28 84.4772 32.4772 80 38 80C43.5228 80 48 84.4772 48 90V123C48 128.523 43.5228 133 38 133C32.4772 133 28 128.523 28 123V90Z" fill="url(#paint1_linear_566_301)"/>
<foreignObject x="7.94077" y="8.94077" width="126.118" height="203.118"><div xmlns="http://www.w3.org/1999/xhtml" style="backdrop-filter:blur(26.53px);clip-path:url(#bgblur_2_566_301_clip_path);height:100%;width:100%"></div></foreignObject><path opacity="0.6" data-figma-bg-blur-radius="53.0592" d="M61 72C61 66.4772 65.4772 62 71 62C76.5228 62 81 66.4772 81 72V149C81 154.523 76.5228 159 71 159C65.4772 159 61 154.523 61 149V72Z" fill="url(#paint2_linear_566_301)"/>
<foreignObject x="271.941" y="26.9408" width="126.118" height="159.118"><div xmlns="http://www.w3.org/1999/xhtml" style="backdrop-filter:blur(26.53px);clip-path:url(#bgblur_3_566_301_clip_path);height:100%;width:100%"></div></foreignObject><path opacity="0.6" data-figma-bg-blur-radius="53.0592" d="M345 90C345 84.4772 340.523 80 335 80C329.477 80 325 84.4772 325 90V123C325 128.523 329.477 133 335 133C340.523 133 345 128.523 345 123V90Z" fill="url(#paint3_linear_566_301)"/>
<foreignObject x="238.941" y="16.9408" width="126.118" height="195.118"><div xmlns="http://www.w3.org/1999/xhtml" style="backdrop-filter:blur(26.53px);clip-path:url(#bgblur_4_566_301_clip_path);height:100%;width:100%"></div></foreignObject><path opacity="0.6" data-figma-bg-blur-radius="53.0592" d="M312 80C312 74.4772 307.523 70 302 70C296.477 70 292 74.4772 292 80V149C292 154.523 296.477 159 302 159C307.523 159 312 154.523 312 149V80Z" fill="url(#paint4_linear_566_301)"/>
<foreignObject x="40.9408" y="45.9408" width="126.118" height="178.118"><div xmlns="http://www.w3.org/1999/xhtml" style="backdrop-filter:blur(26.53px);clip-path:url(#bgblur_5_566_301_clip_path);height:100%;width:100%"></div></foreignObject><path opacity="0.6" data-figma-bg-blur-radius="53.0592" d="M94 109C94 103.477 98.4772 99 104 99C109.523 99 114 103.477 114 109V161C114 166.523 109.523 171 104 171C98.4772 171 94 166.523 94 161V109Z" fill="url(#paint5_linear_566_301)"/>
<foreignObject x="172.941" y="40.9408" width="126.118" height="190.118"><div xmlns="http://www.w3.org/1999/xhtml" style="backdrop-filter:blur(26.53px);clip-path:url(#bgblur_6_566_301_clip_path);height:100%;width:100%"></div></foreignObject><path opacity="0.6" data-figma-bg-blur-radius="53.0592" d="M226 104C226 98.4772 230.477 94 236 94C241.523 94 246 98.4772 246 104V168C246 173.523 241.523 178 236 178C230.477 178 226 173.523 226 168V104Z" fill="url(#paint6_linear_566_301)"/>
<foreignObject x="73.9408" y="26.9408" width="126.118" height="185.118"><div xmlns="http://www.w3.org/1999/xhtml" style="backdrop-filter:blur(26.53px);clip-path:url(#bgblur_7_566_301_clip_path);height:100%;width:100%"></div></foreignObject><path opacity="0.6" data-figma-bg-blur-radius="53.0592" d="M127 90C127 84.4772 131.477 80 137 80C142.523 80 147 84.4772 147 90V149C147 154.523 142.523 159 137 159C131.477 159 127 154.523 127 149V90Z" fill="url(#paint7_linear_566_301)"/>
<foreignObject x="205.941" y="2.94077" width="126.118" height="209.118"><div xmlns="http://www.w3.org/1999/xhtml" style="backdrop-filter:blur(26.53px);clip-path:url(#bgblur_8_566_301_clip_path);height:100%;width:100%"></div></foreignObject><path opacity="0.6" data-figma-bg-blur-radius="53.0592" d="M259 66C259 60.4772 263.477 56 269 56C274.523 56 279 60.4772 279 66V149C279 154.523 274.523 159 269 159C263.477 159 259 154.523 259 149V66Z" fill="url(#paint8_linear_566_301)"/>
<foreignObject x="106.941" y="16.9408" width="126.118" height="174.118"><div xmlns="http://www.w3.org/1999/xhtml" style="backdrop-filter:blur(26.53px);clip-path:url(#bgblur_9_566_301_clip_path);height:100%;width:100%"></div></foreignObject><path opacity="0.6" data-figma-bg-blur-radius="53.0592" d="M160 80C160 74.4772 164.477 70 170 70C175.523 70 180 74.4772 180 80V128C180 133.523 175.523 138 170 138C164.477 138 160 133.523 160 128V80Z" fill="url(#paint9_linear_566_301)"/>
<foreignObject x="139.941" y="45.9408" width="126.118" height="157.118"><div xmlns="http://www.w3.org/1999/xhtml" style="backdrop-filter:blur(26.53px);clip-path:url(#bgblur_10_566_301_clip_path);height:100%;width:100%"></div></foreignObject><path opacity="0.6" data-figma-bg-blur-radius="53.0592" d="M193 109C193 103.477 197.477 99 203 99C208.523 99 213 103.477 213 109V140C213 145.523 208.523 150 203 150C197.477 150 193 145.523 193 140V109Z" fill="url(#paint10_linear_566_301)"/>
</g>
<foreignObject x="-25.0592" y="26.9408" width="126.118" height="159.118"><div xmlns="http://www.w3.org/1999/xhtml" style="backdrop-filter:blur(26.53px);clip-path:url(#bgblur_11_566_301_clip_path);height:100%;width:100%"></div></foreignObject><path opacity="0.6" data-figma-bg-blur-radius="53.0592" d="M28 90C28 84.4772 32.4772 80 38 80C43.5228 80 48 84.4772 48 90V123C48 128.523 43.5228 133 38 133C32.4772 133 28 128.523 28 123V90Z" fill="url(#paint11_linear_566_301)"/>
<foreignObject x="7.94077" y="8.94077" width="126.118" height="203.118"><div xmlns="http://www.w3.org/1999/xhtml" style="backdrop-filter:blur(26.53px);clip-path:url(#bgblur_12_566_301_clip_path);height:100%;width:100%"></div></foreignObject><path opacity="0.6" data-figma-bg-blur-radius="53.0592" d="M61 72C61 66.4772 65.4772 62 71 62C76.5228 62 81 66.4772 81 72V149C81 154.523 76.5228 159 71 159C65.4772 159 61 154.523 61 149V72Z" fill="url(#paint12_linear_566_301)"/>
<foreignObject x="271.941" y="26.9408" width="126.118" height="159.118"><div xmlns="http://www.w3.org/1999/xhtml" style="backdrop-filter:blur(26.53px);clip-path:url(#bgblur_13_566_301_clip_path);height:100%;width:100%"></div></foreignObject><path opacity="0.6" data-figma-bg-blur-radius="53.0592" d="M345 90C345 84.4772 340.523 80 335 80C329.477 80 325 84.4772 325 90V123C325 128.523 329.477 133 335 133C340.523 133 345 128.523 345 123V90Z" fill="url(#paint13_linear_566_301)"/>
<foreignObject x="238.941" y="16.9408" width="126.118" height="195.118"><div xmlns="http://www.w3.org/1999/xhtml" style="backdrop-filter:blur(26.53px);clip-path:url(#bgblur_14_566_301_clip_path);height:100%;width:100%"></div></foreignObject><path opacity="0.6" data-figma-bg-blur-radius="53.0592" d="M312 80C312 74.4772 307.523 70 302 70C296.477 70 292 74.4772 292 80V149C292 154.523 296.477 159 302 159C307.523 159 312 154.523 312 149V80Z" fill="url(#paint14_linear_566_301)"/>
<foreignObject x="40.9408" y="45.9408" width="126.118" height="178.118"><div xmlns="http://www.w3.org/1999/xhtml" style="backdrop-filter:blur(26.53px);clip-path:url(#bgblur_15_566_301_clip_path);height:100%;width:100%"></div></foreignObject><path opacity="0.6" data-figma-bg-blur-radius="53.0592" d="M94 109C94 103.477 98.4772 99 104 99C109.523 99 114 103.477 114 109V161C114 166.523 109.523 171 104 171C98.4772 171 94 166.523 94 161V109Z" fill="url(#paint15_linear_566_301)"/>
<foreignObject x="172.941" y="40.9408" width="126.118" height="190.118"><div xmlns="http://www.w3.org/1999/xhtml" style="backdrop-filter:blur(26.53px);clip-path:url(#bgblur_16_566_301_clip_path);height:100%;width:100%"></div></foreignObject><path opacity="0.6" data-figma-bg-blur-radius="53.0592" d="M226 104C226 98.4772 230.477 94 236 94C241.523 94 246 98.4772 246 104V168C246 173.523 241.523 178 236 178C230.477 178 226 173.523 226 168V104Z" fill="url(#paint16_linear_566_301)"/>
<foreignObject x="73.9408" y="26.9408" width="126.118" height="185.118"><div xmlns="http://www.w3.org/1999/xhtml" style="backdrop-filter:blur(26.53px);clip-path:url(#bgblur_17_566_301_clip_path);height:100%;width:100%"></div></foreignObject><path opacity="0.6" data-figma-bg-blur-radius="53.0592" d="M127 90C127 84.4772 131.477 80 137 80C142.523 80 147 84.4772 147 90V149C147 154.523 142.523 159 137 159C131.477 159 127 154.523 127 149V90Z" fill="url(#paint17_linear_566_301)"/>
<foreignObject x="205.941" y="2.94077" width="126.118" height="209.118"><div xmlns="http://www.w3.org/1999/xhtml" style="backdrop-filter:blur(26.53px);clip-path:url(#bgblur_18_566_301_clip_path);height:100%;width:100%"></div></foreignObject><path opacity="0.6" data-figma-bg-blur-radius="53.0592" d="M259 66C259 60.4772 263.477 56 269 56C274.523 56 279 60.4772 279 66V149C279 154.523 274.523 159 269 159C263.477 159 259 154.523 259 149V66Z" fill="url(#paint18_linear_566_301)"/>
<foreignObject x="106.941" y="16.9408" width="126.118" height="174.118"><div xmlns="http://www.w3.org/1999/xhtml" style="backdrop-filter:blur(26.53px);clip-path:url(#bgblur_19_566_301_clip_path);height:100%;width:100%"></div></foreignObject><path opacity="0.6" data-figma-bg-blur-radius="53.0592" d="M160 80C160 74.4772 164.477 70 170 70C175.523 70 180 74.4772 180 80V128C180 133.523 175.523 138 170 138C164.477 138 160 133.523 160 128V80Z" fill="url(#paint19_linear_566_301)"/>
<foreignObject x="139.941" y="45.9408" width="126.118" height="157.118"><div xmlns="http://www.w3.org/1999/xhtml" style="backdrop-filter:blur(26.53px);clip-path:url(#bgblur_20_566_301_clip_path);height:100%;width:100%"></div></foreignObject><path opacity="0.6" data-figma-bg-blur-radius="53.0592" d="M193 109C193 103.477 197.477 99 203 99C208.523 99 213 103.477 213 109V140C213 145.523 208.523 150 203 150C197.477 150 193 145.523 193 140V109Z" fill="url(#paint20_linear_566_301)"/>
<rect y="206" width="169" height="145.836" transform="rotate(-90 0 206)" fill="url(#paint21_linear_566_301)"/>
<rect width="169" height="173" transform="matrix(4.75723e-08 -1 -1 -4.01638e-08 372 206)" fill="url(#paint22_linear_566_301)"/>
</g>
<defs>
<filter id="filter0_f_566_301" x="-57.6063" y="-33.6063" width="487.213" height="487.213" filterUnits="userSpaceOnUse" color-interpolation-filters="sRGB">
<feFlood flood-opacity="0" result="BackgroundImageFix"/>
<feBlend mode="normal" in="SourceGraphic" in2="BackgroundImageFix" result="shape"/>
<feGaussianBlur stdDeviation="39.3031" result="effect1_foregroundBlur_566_301"/>
</filter>
<filter id="filter1_f_566_301" x="14" y="42" width="345" height="150" filterUnits="userSpaceOnUse" color-interpolation-filters="sRGB">
<feFlood flood-opacity="0" result="BackgroundImageFix"/>
<feBlend mode="normal" in="SourceGraphic" in2="BackgroundImageFix" result="shape"/>
<feGaussianBlur stdDeviation="7" result="effect1_foregroundBlur_566_301"/>
</filter>
<clipPath id="bgblur_1_566_301_clip_path" transform="translate(25.0592 -26.9408)"><path d="M28 90C28 84.4772 32.4772 80 38 80C43.5228 80 48 84.4772 48 90V123C48 128.523 43.5228 133 38 133C32.4772 133 28 128.523 28 123V90Z"/>
</clipPath><clipPath id="bgblur_2_566_301_clip_path" transform="translate(-7.94077 -8.94077)"><path d="M61 72C61 66.4772 65.4772 62 71 62C76.5228 62 81 66.4772 81 72V149C81 154.523 76.5228 159 71 159C65.4772 159 61 154.523 61 149V72Z"/>
</clipPath><clipPath id="bgblur_3_566_301_clip_path" transform="translate(-271.941 -26.9408)"><path d="M345 90C345 84.4772 340.523 80 335 80C329.477 80 325 84.4772 325 90V123C325 128.523 329.477 133 335 133C340.523 133 345 128.523 345 123V90Z"/>
</clipPath><clipPath id="bgblur_4_566_301_clip_path" transform="translate(-238.941 -16.9408)"><path d="M312 80C312 74.4772 307.523 70 302 70C296.477 70 292 74.4772 292 80V149C292 154.523 296.477 159 302 159C307.523 159 312 154.523 312 149V80Z"/>
</clipPath><clipPath id="bgblur_5_566_301_clip_path" transform="translate(-40.9408 -45.9408)"><path d="M94 109C94 103.477 98.4772 99 104 99C109.523 99 114 103.477 114 109V161C114 166.523 109.523 171 104 171C98.4772 171 94 166.523 94 161V109Z"/>
</clipPath><clipPath id="bgblur_6_566_301_clip_path" transform="translate(-172.941 -40.9408)"><path d="M226 104C226 98.4772 230.477 94 236 94C241.523 94 246 98.4772 246 104V168C246 173.523 241.523 178 236 178C230.477 178 226 173.523 226 168V104Z"/>
</clipPath><clipPath id="bgblur_7_566_301_clip_path" transform="translate(-73.9408 -26.9408)"><path d="M127 90C127 84.4772 131.477 80 137 80C142.523 80 147 84.4772 147 90V149C147 154.523 142.523 159 137 159C131.477 159 127 154.523 127 149V90Z"/>
</clipPath><clipPath id="bgblur_8_566_301_clip_path" transform="translate(-205.941 -2.94077)"><path d="M259 66C259 60.4772 263.477 56 269 56C274.523 56 279 60.4772 279 66V149C279 154.523 274.523 159 269 159C263.477 159 259 154.523 259 149V66Z"/>
</clipPath><clipPath id="bgblur_9_566_301_clip_path" transform="translate(-106.941 -16.9408)"><path d="M160 80C160 74.4772 164.477 70 170 70C175.523 70 180 74.4772 180 80V128C180 133.523 175.523 138 170 138C164.477 138 160 133.523 160 128V80Z"/>
</clipPath><clipPath id="bgblur_10_566_301_clip_path" transform="translate(-139.941 -45.9408)"><path d="M193 109C193 103.477 197.477 99 203 99C208.523 99 213 103.477 213 109V140C213 145.523 208.523 150 203 150C197.477 150 193 145.523 193 140V109Z"/>
</clipPath><clipPath id="bgblur_11_566_301_clip_path" transform="translate(25.0592 -26.9408)"><path d="M28 90C28 84.4772 32.4772 80 38 80C43.5228 80 48 84.4772 48 90V123C48 128.523 43.5228 133 38 133C32.4772 133 28 128.523 28 123V90Z"/>
</clipPath><clipPath id="bgblur_12_566_301_clip_path" transform="translate(-7.94077 -8.94077)"><path d="M61 72C61 66.4772 65.4772 62 71 62C76.5228 62 81 66.4772 81 72V149C81 154.523 76.5228 159 71 159C65.4772 159 61 154.523 61 149V72Z"/>
</clipPath><clipPath id="bgblur_13_566_301_clip_path" transform="translate(-271.941 -26.9408)"><path d="M345 90C345 84.4772 340.523 80 335 80C329.477 80 325 84.4772 325 90V123C325 128.523 329.477 133 335 133C340.523 133 345 128.523 345 123V90Z"/>
</clipPath><clipPath id="bgblur_14_566_301_clip_path" transform="translate(-238.941 -16.9408)"><path d="M312 80C312 74.4772 307.523 70 302 70C296.477 70 292 74.4772 292 80V149C292 154.523 296.477 159 302 159C307.523 159 312 154.523 312 149V80Z"/>
</clipPath><clipPath id="bgblur_15_566_301_clip_path" transform="translate(-40.9408 -45.9408)"><path d="M94 109C94 103.477 98.4772 99 104 99C109.523 99 114 103.477 114 109V161C114 166.523 109.523 171 104 171C98.4772 171 94 166.523 94 161V109Z"/>
</clipPath><clipPath id="bgblur_16_566_301_clip_path" transform="translate(-172.941 -40.9408)"><path d="M226 104C226 98.4772 230.477 94 236 94C241.523 94 246 98.4772 246 104V168C246 173.523 241.523 178 236 178C230.477 178 226 173.523 226 168V104Z"/>
</clipPath><clipPath id="bgblur_17_566_301_clip_path" transform="translate(-73.9408 -26.9408)"><path d="M127 90C127 84.4772 131.477 80 137 80C142.523 80 147 84.4772 147 90V149C147 154.523 142.523 159 137 159C131.477 159 127 154.523 127 149V90Z"/>
</clipPath><clipPath id="bgblur_18_566_301_clip_path" transform="translate(-205.941 -2.94077)"><path d="M259 66C259 60.4772 263.477 56 269 56C274.523 56 279 60.4772 279 66V149C279 154.523 274.523 159 269 159C263.477 159 259 154.523 259 149V66Z"/>
</clipPath><clipPath id="bgblur_19_566_301_clip_path" transform="translate(-106.941 -16.9408)"><path d="M160 80C160 74.4772 164.477 70 170 70C175.523 70 180 74.4772 180 80V128C180 133.523 175.523 138 170 138C164.477 138 160 133.523 160 128V80Z"/>
</clipPath><clipPath id="bgblur_20_566_301_clip_path" transform="translate(-139.941 -45.9408)"><path d="M193 109C193 103.477 197.477 99 203 99C208.523 99 213 103.477 213 109V140C213 145.523 208.523 150 203 150C197.477 150 193 145.523 193 140V109Z"/>
</clipPath><radialGradient id="paint0_radial_566_301" cx="0" cy="0" r="1" gradientUnits="userSpaceOnUse" gradientTransform="translate(186 210) rotate(90) scale(165)">
<stop stop-color="white"/>
<stop offset="1" stop-color="white" stop-opacity="0"/>
</radialGradient>
<linearGradient id="paint1_linear_566_301" x1="38" y1="80" x2="38" y2="133" gradientUnits="userSpaceOnUse">
<stop stop-color="white"/>
<stop offset="1" stop-color="white" stop-opacity="0.05"/>
</linearGradient>
<linearGradient id="paint2_linear_566_301" x1="71" y1="62" x2="71" y2="159" gradientUnits="userSpaceOnUse">
<stop stop-color="white"/>
<stop offset="1" stop-color="white" stop-opacity="0.05"/>
</linearGradient>
<linearGradient id="paint3_linear_566_301" x1="335" y1="80" x2="335" y2="133" gradientUnits="userSpaceOnUse">
<stop stop-color="white"/>
<stop offset="1" stop-color="white" stop-opacity="0.05"/>
</linearGradient>
<linearGradient id="paint4_linear_566_301" x1="302" y1="70" x2="302" y2="159" gradientUnits="userSpaceOnUse">
<stop stop-color="white"/>
<stop offset="1" stop-color="white" stop-opacity="0.05"/>
</linearGradient>
<linearGradient id="paint5_linear_566_301" x1="104" y1="99" x2="104" y2="171" gradientUnits="userSpaceOnUse">
<stop stop-color="white"/>
<stop offset="1" stop-color="white" stop-opacity="0.05"/>
</linearGradient>
<linearGradient id="paint6_linear_566_301" x1="236" y1="94" x2="236" y2="178" gradientUnits="userSpaceOnUse">
<stop stop-color="white"/>
<stop offset="1" stop-color="white" stop-opacity="0.05"/>
</linearGradient>
<linearGradient id="paint7_linear_566_301" x1="137" y1="80" x2="137" y2="159" gradientUnits="userSpaceOnUse">
<stop stop-color="white"/>
<stop offset="1" stop-color="white" stop-opacity="0.05"/>
</linearGradient>
<linearGradient id="paint8_linear_566_301" x1="269" y1="56" x2="269" y2="159" gradientUnits="userSpaceOnUse">
<stop stop-color="white"/>
<stop offset="1" stop-color="white" stop-opacity="0.05"/>
</linearGradient>
<linearGradient id="paint9_linear_566_301" x1="170" y1="70" x2="170" y2="138" gradientUnits="userSpaceOnUse">
<stop stop-color="white"/>
<stop offset="1" stop-color="white" stop-opacity="0.05"/>
</linearGradient>
<linearGradient id="paint10_linear_566_301" x1="203" y1="99" x2="203" y2="150" gradientUnits="userSpaceOnUse">
<stop stop-color="white"/>
<stop offset="1" stop-color="white" stop-opacity="0.05"/>
</linearGradient>
<linearGradient id="paint11_linear_566_301" x1="38" y1="80" x2="38" y2="133" gradientUnits="userSpaceOnUse">
<stop stop-color="white"/>
<stop offset="1" stop-color="white" stop-opacity="0.05"/>
</linearGradient>
<linearGradient id="paint12_linear_566_301" x1="71" y1="62" x2="71" y2="159" gradientUnits="userSpaceOnUse">
<stop stop-color="white"/>
<stop offset="1" stop-color="white" stop-opacity="0.05"/>
</linearGradient>
<linearGradient id="paint13_linear_566_301" x1="335" y1="80" x2="335" y2="133" gradientUnits="userSpaceOnUse">
<stop stop-color="white"/>
<stop offset="1" stop-color="white" stop-opacity="0.05"/>
</linearGradient>
<linearGradient id="paint14_linear_566_301" x1="302" y1="70" x2="302" y2="159" gradientUnits="userSpaceOnUse">
<stop stop-color="white"/>
<stop offset="1" stop-color="white" stop-opacity="0.05"/>
</linearGradient>
<linearGradient id="paint15_linear_566_301" x1="104" y1="99" x2="104" y2="171" gradientUnits="userSpaceOnUse">
<stop stop-color="white"/>
<stop offset="1" stop-color="white" stop-opacity="0.05"/>
</linearGradient>
<linearGradient id="paint16_linear_566_301" x1="236" y1="94" x2="236" y2="178" gradientUnits="userSpaceOnUse">
<stop stop-color="white"/>
<stop offset="1" stop-color="white" stop-opacity="0.05"/>
</linearGradient>
<linearGradient id="paint17_linear_566_301" x1="137" y1="80" x2="137" y2="159" gradientUnits="userSpaceOnUse">
<stop stop-color="white"/>
<stop offset="1" stop-color="white" stop-opacity="0.05"/>
</linearGradient>
<linearGradient id="paint18_linear_566_301" x1="269" y1="56" x2="269" y2="159" gradientUnits="userSpaceOnUse">
<stop stop-color="white"/>
<stop offset="1" stop-color="white" stop-opacity="0.05"/>
</linearGradient>
<linearGradient id="paint19_linear_566_301" x1="170" y1="70" x2="170" y2="138" gradientUnits="userSpaceOnUse">
<stop stop-color="white"/>
<stop offset="1" stop-color="white" stop-opacity="0.05"/>
</linearGradient>
<linearGradient id="paint20_linear_566_301" x1="203" y1="99" x2="203" y2="150" gradientUnits="userSpaceOnUse">
<stop stop-color="white"/>
<stop offset="1" stop-color="white" stop-opacity="0.05"/>
</linearGradient>
<linearGradient id="paint21_linear_566_301" x1="84.5" y1="206" x2="84.5" y2="351.836" gradientUnits="userSpaceOnUse">
<stop stop-color="#202020"/>
<stop offset="1" stop-color="#202020" stop-opacity="0"/>
</linearGradient>
<linearGradient id="paint22_linear_566_301" x1="84.5" y1="0" x2="84.5" y2="173" gradientUnits="userSpaceOnUse">
<stop stop-color="#202020"/>
<stop offset="1" stop-color="#202020" stop-opacity="0"/>
</linearGradient>
<clipPath id="clip0_566_301">
<rect width="372" height="222" fill="white"/>
</clipPath>
</defs>
</svg>
