<svg width="371" height="222" viewBox="0 0 371 222" fill="none" xmlns="http://www.w3.org/2000/svg">
<g clip-path="url(#clip0_566_340)">
<rect width="372" height="222" fill="#1F1F1F"/>
<g filter="url(#filter0_dddddd_566_340)">
<path d="M24 178.859L29.625 179.985C35.25 181.11 46.5 183.36 57.75 183.89C69 184.42 80.25 183.229 91.5 175.992C102.75 168.756 114 155.475 125.25 150.631C136.5 145.786 147.75 149.379 159 147.712C170.25 146.044 181.5 139.116 192.75 124.347C204 109.577 215.25 86.9665 226.5 82.109C237.75 77.2515 249 90.1474 260.25 83.9215C271.5 77.6955 282.75 52.3478 288.375 39.6739L294 27" stroke="url(#paint0_linear_566_340)" stroke-width="2"/>
</g>
<g opacity="0.6" filter="url(#filter1_f_566_340)">
<circle cx="129" cy="152" r="13" fill="white"/>
</g>
<circle cx="129" cy="149" r="5" fill="white"/>
<g opacity="0.6" filter="url(#filter2_f_566_340)">
<circle cx="229" cy="81" r="13" fill="white"/>
</g>
<circle cx="229" cy="81" r="5" fill="white"/>
<g opacity="0.4" filter="url(#filter3_f_566_340)">
<circle cx="294" cy="27" r="11" fill="white"/>
</g>
<circle cx="294" cy="27" r="5" fill="white"/>
<path opacity="0.3" d="M326.884 30.99V29.835H327.774V30.99H326.884ZM326.884 22.965V21.805H327.774V22.965H326.884ZM327.399 30.15C326.912 30.15 326.474 30.0633 326.084 29.89C325.697 29.7133 325.379 29.465 325.129 29.145C324.879 28.8217 324.716 28.4417 324.639 28.005L325.514 27.86C325.621 28.3033 325.846 28.655 326.189 28.915C326.536 29.175 326.952 29.305 327.439 29.305C327.929 29.305 328.326 29.1867 328.629 28.95C328.932 28.7133 329.084 28.4083 329.084 28.035C329.084 27.7617 329.002 27.5417 328.839 27.375C328.679 27.2083 328.409 27.0667 328.029 26.95L326.384 26.44C325.401 26.1333 324.909 25.5467 324.909 24.68C324.909 24.2733 325.007 23.9183 325.204 23.615C325.404 23.3083 325.682 23.0717 326.039 22.905C326.399 22.735 326.817 22.6517 327.294 22.655C327.757 22.6583 328.171 22.745 328.534 22.915C328.897 23.0817 329.197 23.3217 329.434 23.635C329.674 23.9483 329.836 24.3233 329.919 24.76L329.019 24.925C328.972 24.6417 328.869 24.3933 328.709 24.18C328.552 23.9667 328.352 23.8017 328.109 23.685C327.866 23.565 327.592 23.5033 327.289 23.5C327.006 23.4967 326.751 23.5433 326.524 23.64C326.301 23.7367 326.124 23.8717 325.994 24.045C325.864 24.2183 325.799 24.4167 325.799 24.64C325.799 24.8833 325.889 25.09 326.069 25.26C326.252 25.4267 326.539 25.57 326.929 25.69L328.279 26.09C328.872 26.2667 329.301 26.505 329.564 26.805C329.827 27.1017 329.959 27.4983 329.959 27.995C329.959 28.425 329.852 28.8017 329.639 29.125C329.429 29.4483 329.131 29.7 328.744 29.88C328.361 30.06 327.912 30.15 327.399 30.15ZM330.805 29.995L330.81 29.195L334.005 26.32C334.271 26.08 334.45 25.8533 334.54 25.64C334.633 25.4233 334.68 25.2017 334.68 24.975C334.68 24.6983 334.616 24.4483 334.49 24.225C334.363 24.0017 334.19 23.825 333.97 23.695C333.753 23.565 333.506 23.5 333.23 23.5C332.943 23.5 332.688 23.5683 332.465 23.705C332.241 23.8383 332.065 24.0167 331.935 24.24C331.808 24.4633 331.746 24.7067 331.75 24.97H330.84C330.84 24.5167 330.945 24.1167 331.155 23.77C331.365 23.42 331.65 23.1467 332.01 22.95C332.373 22.75 332.785 22.65 333.245 22.65C333.691 22.65 334.091 22.7533 334.445 22.96C334.798 23.1633 335.076 23.4417 335.28 23.795C335.486 24.145 335.59 24.5417 335.59 24.985C335.59 25.2983 335.55 25.57 335.47 25.8C335.393 26.03 335.273 26.2433 335.11 26.44C334.946 26.6333 334.741 26.84 334.495 27.06L331.84 29.445L331.725 29.145H335.59V29.995H330.805ZM338.916 30.15C338.546 30.15 338.201 30.0733 337.881 29.92C337.564 29.7667 337.293 29.5567 337.066 29.29C336.843 29.02 336.683 28.71 336.586 28.36L337.441 28.13C337.501 28.3667 337.608 28.5717 337.761 28.745C337.914 28.915 338.093 29.0483 338.296 29.145C338.503 29.2383 338.718 29.285 338.941 29.285C339.234 29.285 339.498 29.215 339.731 29.075C339.968 28.9317 340.154 28.7433 340.291 28.51C340.428 28.2733 340.496 28.015 340.496 27.735C340.496 27.445 340.424 27.1833 340.281 26.95C340.141 26.7133 339.953 26.5267 339.716 26.39C339.479 26.2533 339.221 26.185 338.941 26.185C338.624 26.185 338.353 26.2517 338.126 26.385C337.903 26.515 337.726 26.675 337.596 26.865L336.806 26.565L337.026 22.8H340.891V23.645H337.456L337.851 23.275L337.666 26.29L337.471 26.035C337.671 25.8217 337.909 25.6567 338.186 25.54C338.466 25.4233 338.751 25.365 339.041 25.365C339.488 25.365 339.888 25.47 340.241 25.68C340.594 25.8867 340.874 26.17 341.081 26.53C341.288 26.8867 341.391 27.2883 341.391 27.735C341.391 28.1783 341.278 28.5833 341.051 28.95C340.824 29.3133 340.523 29.605 340.146 29.825C339.773 30.0417 339.363 30.15 338.916 30.15ZM342.587 30V22.8H343.477V26.18L346.627 22.8H347.747L344.477 26.295L348.002 30H346.852L343.477 26.48V30H342.587Z" fill="white"/>
<path opacity="0.3" d="M328.603 83.99V82.835H329.493V83.99H328.603ZM328.603 75.965V74.805H329.493V75.965H328.603ZM329.118 83.15C328.631 83.15 328.193 83.0633 327.803 82.89C327.416 82.7133 327.098 82.465 326.848 82.145C326.598 81.8217 326.434 81.4417 326.358 81.005L327.233 80.86C327.339 81.3033 327.564 81.655 327.908 81.915C328.254 82.175 328.671 82.305 329.158 82.305C329.648 82.305 330.044 82.1867 330.348 81.95C330.651 81.7133 330.803 81.4083 330.803 81.035C330.803 80.7617 330.721 80.5417 330.558 80.375C330.398 80.2083 330.128 80.0667 329.748 79.95L328.103 79.44C327.119 79.1333 326.628 78.5467 326.628 77.68C326.628 77.2733 326.726 76.9183 326.923 76.615C327.123 76.3083 327.401 76.0717 327.758 75.905C328.118 75.735 328.536 75.6517 329.013 75.655C329.476 75.6583 329.889 75.745 330.253 75.915C330.616 76.0817 330.916 76.3217 331.153 76.635C331.393 76.9483 331.554 77.3233 331.638 77.76L330.738 77.925C330.691 77.6417 330.588 77.3933 330.428 77.18C330.271 76.9667 330.071 76.8017 329.828 76.685C329.584 76.565 329.311 76.5033 329.008 76.5C328.724 76.4967 328.469 76.5433 328.243 76.64C328.019 76.7367 327.843 76.8717 327.713 77.045C327.583 77.2183 327.518 77.4167 327.518 77.64C327.518 77.8833 327.608 78.09 327.788 78.26C327.971 78.4267 328.258 78.57 328.648 78.69L329.998 79.09C330.591 79.2667 331.019 79.505 331.283 79.805C331.546 80.1017 331.678 80.4983 331.678 80.995C331.678 81.425 331.571 81.8017 331.358 82.125C331.148 82.4483 330.849 82.7 330.463 82.88C330.079 83.06 329.631 83.15 329.118 83.15ZM333.978 83V76.785L332.623 77.605V76.61L333.978 75.8H334.883V83H333.978ZM338.916 83.15C338.546 83.15 338.201 83.0733 337.881 82.92C337.564 82.7667 337.293 82.5567 337.066 82.29C336.843 82.02 336.683 81.71 336.586 81.36L337.441 81.13C337.501 81.3667 337.608 81.5717 337.761 81.745C337.914 81.915 338.093 82.0483 338.296 82.145C338.503 82.2383 338.718 82.285 338.941 82.285C339.234 82.285 339.498 82.215 339.731 82.075C339.968 81.9317 340.154 81.7433 340.291 81.51C340.428 81.2733 340.496 81.015 340.496 80.735C340.496 80.445 340.424 80.1833 340.281 79.95C340.141 79.7133 339.953 79.5267 339.716 79.39C339.479 79.2533 339.221 79.185 338.941 79.185C338.624 79.185 338.353 79.2517 338.126 79.385C337.903 79.515 337.726 79.675 337.596 79.865L336.806 79.565L337.026 75.8H340.891V76.645H337.456L337.851 76.275L337.666 79.29L337.471 79.035C337.671 78.8217 337.909 78.6567 338.186 78.54C338.466 78.4233 338.751 78.365 339.041 78.365C339.488 78.365 339.888 78.47 340.241 78.68C340.594 78.8867 340.874 79.17 341.081 79.53C341.288 79.8867 341.391 80.2883 341.391 80.735C341.391 81.1783 341.278 81.5833 341.051 81.95C340.824 82.3133 340.523 82.605 340.146 82.825C339.773 83.0417 339.363 83.15 338.916 83.15ZM342.587 83V75.8H343.477V79.18L346.627 75.8H347.747L344.477 79.295L348.002 83H346.852L343.477 79.48V83H342.587Z" fill="white"/>
<path opacity="0.3" d="M328.144 136.99V135.835H329.034V136.99H328.144ZM328.144 128.965V127.805H329.034V128.965H328.144ZM328.659 136.15C328.172 136.15 327.734 136.063 327.344 135.89C326.957 135.713 326.639 135.465 326.389 135.145C326.139 134.822 325.975 134.442 325.899 134.005L326.774 133.86C326.88 134.303 327.105 134.655 327.449 134.915C327.795 135.175 328.212 135.305 328.699 135.305C329.189 135.305 329.585 135.187 329.889 134.95C330.192 134.713 330.344 134.408 330.344 134.035C330.344 133.762 330.262 133.542 330.099 133.375C329.939 133.208 329.669 133.067 329.289 132.95L327.644 132.44C326.66 132.133 326.169 131.547 326.169 130.68C326.169 130.273 326.267 129.918 326.464 129.615C326.664 129.308 326.942 129.072 327.299 128.905C327.659 128.735 328.077 128.652 328.554 128.655C329.017 128.658 329.43 128.745 329.794 128.915C330.157 129.082 330.457 129.322 330.694 129.635C330.934 129.948 331.095 130.323 331.179 130.76L330.279 130.925C330.232 130.642 330.129 130.393 329.969 130.18C329.812 129.967 329.612 129.802 329.369 129.685C329.125 129.565 328.852 129.503 328.549 129.5C328.265 129.497 328.01 129.543 327.784 129.64C327.56 129.737 327.384 129.872 327.254 130.045C327.124 130.218 327.059 130.417 327.059 130.64C327.059 130.883 327.149 131.09 327.329 131.26C327.512 131.427 327.799 131.57 328.189 131.69L329.539 132.09C330.132 132.267 330.56 132.505 330.824 132.805C331.087 133.102 331.219 133.498 331.219 133.995C331.219 134.425 331.112 134.802 330.899 135.125C330.689 135.448 330.39 135.7 330.004 135.88C329.62 136.06 329.172 136.15 328.659 136.15ZM333.519 136V129.785L332.164 130.605V129.61L333.519 128.8H334.424V136H333.519ZM338.757 136.15C338.29 136.15 337.874 136.045 337.507 135.835C337.144 135.622 336.855 135.333 336.642 134.97C336.432 134.603 336.327 134.187 336.327 133.72V131.08C336.327 130.613 336.432 130.197 336.642 129.83C336.855 129.463 337.144 129.175 337.507 128.965C337.874 128.755 338.29 128.65 338.757 128.65C339.224 128.65 339.64 128.755 340.007 128.965C340.374 129.175 340.662 129.463 340.872 129.83C341.082 130.197 341.187 130.613 341.187 131.08V133.72C341.187 134.187 341.082 134.603 340.872 134.97C340.662 135.333 340.374 135.622 340.007 135.835C339.64 136.045 339.224 136.15 338.757 136.15ZM338.757 135.295C339.04 135.295 339.297 135.227 339.527 135.09C339.757 134.953 339.94 134.77 340.077 134.54C340.214 134.307 340.282 134.05 340.282 133.77V131.025C340.282 130.742 340.214 130.485 340.077 130.255C339.94 130.025 339.757 129.842 339.527 129.705C339.297 129.568 339.04 129.5 338.757 129.5C338.477 129.5 338.22 129.568 337.987 129.705C337.757 129.842 337.574 130.025 337.437 130.255C337.3 130.485 337.232 130.742 337.232 131.025V133.77C337.232 134.05 337.3 134.307 337.437 134.54C337.574 134.77 337.757 134.953 337.987 135.09C338.22 135.227 338.477 135.295 338.757 135.295ZM342.587 136V128.8H343.477V132.18L346.627 128.8H347.747L344.477 132.295L348.002 136H346.852L343.477 132.48V136H342.587Z" fill="white"/>
<path opacity="0.3" d="M332.665 189.99V188.835H333.555V189.99H332.665ZM332.665 181.965V180.805H333.555V181.965H332.665ZM333.18 189.15C332.694 189.15 332.255 189.063 331.865 188.89C331.479 188.713 331.16 188.465 330.91 188.145C330.66 187.822 330.497 187.442 330.42 187.005L331.295 186.86C331.402 187.303 331.627 187.655 331.97 187.915C332.317 188.175 332.734 188.305 333.22 188.305C333.71 188.305 334.107 188.187 334.41 187.95C334.714 187.713 334.865 187.408 334.865 187.035C334.865 186.762 334.784 186.542 334.62 186.375C334.46 186.208 334.19 186.067 333.81 185.95L332.165 185.44C331.182 185.133 330.69 184.547 330.69 183.68C330.69 183.273 330.789 182.918 330.985 182.615C331.185 182.308 331.464 182.072 331.82 181.905C332.18 181.735 332.599 181.652 333.075 181.655C333.539 181.658 333.952 181.745 334.315 181.915C334.679 182.082 334.979 182.322 335.215 182.635C335.455 182.948 335.617 183.323 335.7 183.76L334.8 183.925C334.754 183.642 334.65 183.393 334.49 183.18C334.334 182.967 334.134 182.802 333.89 182.685C333.647 182.565 333.374 182.503 333.07 182.5C332.787 182.497 332.532 182.543 332.305 182.64C332.082 182.737 331.905 182.872 331.775 183.045C331.645 183.218 331.58 183.417 331.58 183.64C331.58 183.883 331.67 184.09 331.85 184.26C332.034 184.427 332.32 184.57 332.71 184.69L334.06 185.09C334.654 185.267 335.082 185.505 335.345 185.805C335.609 186.102 335.74 186.498 335.74 186.995C335.74 187.425 335.634 187.802 335.42 188.125C335.21 188.448 334.912 188.7 334.525 188.88C334.142 189.06 333.694 189.15 333.18 189.15ZM338.916 189.15C338.546 189.15 338.201 189.073 337.881 188.92C337.564 188.767 337.293 188.557 337.066 188.29C336.843 188.02 336.683 187.71 336.586 187.36L337.441 187.13C337.501 187.367 337.608 187.572 337.761 187.745C337.914 187.915 338.093 188.048 338.296 188.145C338.503 188.238 338.718 188.285 338.941 188.285C339.234 188.285 339.498 188.215 339.731 188.075C339.968 187.932 340.154 187.743 340.291 187.51C340.428 187.273 340.496 187.015 340.496 186.735C340.496 186.445 340.424 186.183 340.281 185.95C340.141 185.713 339.953 185.527 339.716 185.39C339.479 185.253 339.221 185.185 338.941 185.185C338.624 185.185 338.353 185.252 338.126 185.385C337.903 185.515 337.726 185.675 337.596 185.865L336.806 185.565L337.026 181.8H340.891V182.645H337.456L337.851 182.275L337.666 185.29L337.471 185.035C337.671 184.822 337.909 184.657 338.186 184.54C338.466 184.423 338.751 184.365 339.041 184.365C339.488 184.365 339.888 184.47 340.241 184.68C340.594 184.887 340.874 185.17 341.081 185.53C341.288 185.887 341.391 186.288 341.391 186.735C341.391 187.178 341.278 187.583 341.051 187.95C340.824 188.313 340.523 188.605 340.146 188.825C339.773 189.042 339.363 189.15 338.916 189.15ZM342.587 189V181.8H343.477V185.18L346.627 181.8H347.747L344.477 185.295L348.002 189H346.852L343.477 185.48V189H342.587Z" fill="white"/>
<rect x="112" y="123" width="34" height="18" rx="9" fill="white" fill-opacity="0.15"/>
<path d="M122.59 136.995V135.825H123.635V136.995H122.59ZM122.59 128.98V127.805H123.635V128.98H122.59ZM123.165 136.15C122.665 136.15 122.218 136.06 121.825 135.88C121.432 135.7 121.108 135.445 120.855 135.115C120.605 134.782 120.442 134.388 120.365 133.935L121.4 133.77C121.5 134.197 121.713 134.537 122.04 134.79C122.367 135.04 122.758 135.165 123.215 135.165C123.668 135.165 124.037 135.057 124.32 134.84C124.607 134.623 124.75 134.347 124.75 134.01C124.75 133.77 124.677 133.575 124.53 133.425C124.387 133.275 124.152 133.148 123.825 133.045L122.135 132.525C121.135 132.215 120.635 131.615 120.635 130.725C120.635 130.305 120.735 129.94 120.935 129.63C121.138 129.32 121.423 129.08 121.79 128.91C122.157 128.74 122.585 128.655 123.075 128.655C123.545 128.662 123.962 128.748 124.325 128.915C124.692 129.082 124.995 129.322 125.235 129.635C125.478 129.948 125.647 130.325 125.74 130.765L124.675 130.955C124.628 130.698 124.53 130.472 124.38 130.275C124.233 130.078 124.047 129.925 123.82 129.815C123.597 129.705 123.345 129.648 123.065 129.645C122.802 129.638 122.565 129.68 122.355 129.77C122.148 129.857 121.983 129.98 121.86 130.14C121.74 130.297 121.68 130.475 121.68 130.675C121.68 130.895 121.765 131.082 121.935 131.235C122.105 131.388 122.373 131.52 122.74 131.63L124.065 132.015C124.672 132.195 125.11 132.437 125.38 132.74C125.65 133.043 125.785 133.447 125.785 133.95C125.785 134.39 125.675 134.775 125.455 135.105C125.238 135.432 124.933 135.688 124.54 135.875C124.147 136.058 123.688 136.15 123.165 136.15ZM129.157 136.15C128.687 136.15 128.271 136.057 127.907 135.87C127.547 135.68 127.264 135.417 127.057 135.08C126.854 134.743 126.752 134.353 126.752 133.91C126.752 133.497 126.849 133.118 127.042 132.775C127.236 132.432 127.524 132.162 127.907 131.965L127.887 132.325C127.581 132.135 127.344 131.898 127.177 131.615C127.014 131.328 126.932 131.008 126.932 130.655C126.932 130.245 127.027 129.89 127.217 129.59C127.407 129.29 127.669 129.058 128.002 128.895C128.339 128.732 128.724 128.65 129.157 128.65C129.591 128.65 129.974 128.732 130.307 128.895C130.641 129.058 130.902 129.29 131.092 129.59C131.282 129.89 131.377 130.245 131.377 130.655C131.377 131.008 131.299 131.327 131.142 131.61C130.986 131.893 130.746 132.132 130.422 132.325L130.407 131.975C130.787 132.162 131.076 132.428 131.272 132.775C131.469 133.118 131.567 133.497 131.567 133.91C131.567 134.353 131.464 134.743 131.257 135.08C131.051 135.417 130.766 135.68 130.402 135.87C130.039 136.057 129.624 136.15 129.157 136.15ZM129.157 135.155C129.544 135.155 129.857 135.05 130.097 134.84C130.337 134.627 130.457 134.317 130.457 133.91C130.457 133.503 130.337 133.193 130.097 132.98C129.861 132.763 129.547 132.655 129.157 132.655C128.767 132.655 128.452 132.763 128.212 132.98C127.976 133.193 127.857 133.503 127.857 133.91C127.857 134.317 127.977 134.627 128.217 134.84C128.457 135.05 128.771 135.155 129.157 135.155ZM129.157 131.655C129.487 131.655 129.754 131.573 129.957 131.41C130.164 131.243 130.267 130.992 130.267 130.655C130.267 130.318 130.164 130.067 129.957 129.9C129.754 129.73 129.487 129.645 129.157 129.645C128.827 129.645 128.559 129.73 128.352 129.9C128.146 130.067 128.042 130.318 128.042 130.655C128.042 130.992 128.146 131.243 128.352 131.41C128.559 131.573 128.827 131.655 129.157 131.655ZM132.863 136L132.868 128.8H133.928V133.2L136.048 130.6H137.378L135.138 133.3L137.608 136H136.188L133.928 133.4V136H132.863Z" fill="white"/>
<rect x="210" y="54" width="38" height="18" rx="9" fill="white" fill-opacity="0.15"/>
<path d="M220.59 67.995V66.825H221.635V67.995H220.59ZM220.59 59.98V58.805H221.635V59.98H220.59ZM221.165 67.15C220.665 67.15 220.218 67.06 219.825 66.88C219.432 66.7 219.108 66.445 218.855 66.115C218.605 65.7817 218.442 65.3883 218.365 64.935L219.4 64.77C219.5 65.1967 219.713 65.5367 220.04 65.79C220.367 66.04 220.758 66.165 221.215 66.165C221.668 66.165 222.037 66.0567 222.32 65.84C222.607 65.6233 222.75 65.3467 222.75 65.01C222.75 64.77 222.677 64.575 222.53 64.425C222.387 64.275 222.152 64.1483 221.825 64.045L220.135 63.525C219.135 63.215 218.635 62.615 218.635 61.725C218.635 61.305 218.735 60.94 218.935 60.63C219.138 60.32 219.423 60.08 219.79 59.91C220.157 59.74 220.585 59.655 221.075 59.655C221.545 59.6617 221.962 59.7483 222.325 59.915C222.692 60.0817 222.995 60.3217 223.235 60.635C223.478 60.9483 223.647 61.325 223.74 61.765L222.675 61.955C222.628 61.6983 222.53 61.4717 222.38 61.275C222.233 61.0783 222.047 60.925 221.82 60.815C221.597 60.705 221.345 60.6483 221.065 60.645C220.802 60.6383 220.565 60.68 220.355 60.77C220.148 60.8567 219.983 60.98 219.86 61.14C219.74 61.2967 219.68 61.475 219.68 61.675C219.68 61.895 219.765 62.0817 219.935 62.235C220.105 62.3883 220.373 62.52 220.74 62.63L222.065 63.015C222.672 63.195 223.11 63.4367 223.38 63.74C223.65 64.0433 223.785 64.4467 223.785 64.95C223.785 65.39 223.675 65.775 223.455 66.105C223.238 66.4317 222.933 66.6883 222.54 66.875C222.147 67.0583 221.688 67.15 221.165 67.15ZM226.107 67V60.95L224.752 61.775V60.61L226.107 59.8H227.172V67H226.107ZM231.206 67.15C230.836 67.15 230.491 67.075 230.171 66.925C229.854 66.7717 229.583 66.5617 229.356 66.295C229.129 66.025 228.968 65.715 228.871 65.365L229.876 65.095C229.933 65.3083 230.029 65.4933 230.166 65.65C230.306 65.8067 230.469 65.9283 230.656 66.015C230.843 66.0983 231.036 66.14 231.236 66.14C231.499 66.14 231.738 66.0767 231.951 65.95C232.168 65.8233 232.338 65.6533 232.461 65.44C232.588 65.2267 232.651 64.9917 232.651 64.735C232.651 64.4717 232.586 64.2333 232.456 64.02C232.329 63.8067 232.158 63.6383 231.941 63.515C231.728 63.3883 231.493 63.325 231.236 63.325C230.943 63.325 230.694 63.3833 230.491 63.5C230.288 63.6167 230.129 63.7517 230.016 63.905L229.106 63.585L229.326 59.8H233.211V60.785H229.861L230.286 60.39L230.111 63.225L229.906 62.96C230.096 62.77 230.323 62.625 230.586 62.525C230.849 62.425 231.111 62.375 231.371 62.375C231.818 62.375 232.216 62.4783 232.566 62.685C232.919 62.8917 233.198 63.1733 233.401 63.53C233.604 63.8833 233.706 64.285 233.706 64.735C233.706 65.1817 233.591 65.5883 233.361 65.955C233.131 66.3183 232.826 66.6083 232.446 66.825C232.066 67.0417 231.653 67.15 231.206 67.15ZM234.896 67L234.901 59.8H235.961V64.2L238.081 61.6H239.411L237.171 64.3L239.641 67H238.221L235.961 64.4V67H234.896Z" fill="white"/>
<line opacity="0.2" x1="129.75" y1="315" x2="129.75" y2="157" stroke="url(#paint1_linear_566_340)" stroke-width="0.5" stroke-dasharray="5 5"/>
<line opacity="0.2" x1="229.75" y1="315" x2="229.75" y2="88" stroke="url(#paint2_linear_566_340)" stroke-width="0.5" stroke-dasharray="5 5"/>
<line opacity="0.2" x1="294.75" y1="315" x2="294.75" y2="38" stroke="url(#paint3_linear_566_340)" stroke-width="0.5" stroke-dasharray="5 5"/>
</g>
<defs>
<filter id="filter0_dddddd_566_340" x="-119.196" y="-52.4058" width="557.11" height="444.406" filterUnits="userSpaceOnUse" color-interpolation-filters="sRGB">
<feFlood flood-opacity="0" result="BackgroundImageFix"/>
<feColorMatrix in="SourceAlpha" type="matrix" values="0 0 0 0 0 0 0 0 0 0 0 0 0 0 0 0 0 0 127 0" result="hardAlpha"/>
<feOffset dy="1.77104"/>
<feGaussianBlur stdDeviation="1.97859"/>
<feColorMatrix type="matrix" values="0 0 0 0 1 0 0 0 0 1 0 0 0 0 1 0 0 0 0.196802 0"/>
<feBlend mode="normal" in2="BackgroundImageFix" result="effect1_dropShadow_566_340"/>
<feColorMatrix in="SourceAlpha" type="matrix" values="0 0 0 0 0 0 0 0 0 0 0 0 0 0 0 0 0 0 127 0" result="hardAlpha"/>
<feOffset dy="4.25607"/>
<feGaussianBlur stdDeviation="4.75482"/>
<feColorMatrix type="matrix" values="0 0 0 0 1 0 0 0 0 1 0 0 0 0 1 0 0 0 0.282725 0"/>
<feBlend mode="normal" in2="effect1_dropShadow_566_340" result="effect2_dropShadow_566_340"/>
<feColorMatrix in="SourceAlpha" type="matrix" values="0 0 0 0 0 0 0 0 0 0 0 0 0 0 0 0 0 0 127 0" result="hardAlpha"/>
<feOffset dy="8.01379"/>
<feGaussianBlur stdDeviation="8.95291"/>
<feColorMatrix type="matrix" values="0 0 0 0 1 0 0 0 0 1 0 0 0 0 1 0 0 0 0.35 0"/>
<feBlend mode="normal" in2="effect2_dropShadow_566_340" result="effect3_dropShadow_566_340"/>
<feColorMatrix in="SourceAlpha" type="matrix" values="0 0 0 0 0 0 0 0 0 0 0 0 0 0 0 0 0 0 127 0" result="hardAlpha"/>
<feOffset dy="14.2952"/>
<feGaussianBlur stdDeviation="15.9705"/>
<feColorMatrix type="matrix" values="0 0 0 0 1 0 0 0 0 1 0 0 0 0 1 0 0 0 0.417275 0"/>
<feBlend mode="normal" in2="effect3_dropShadow_566_340" result="effect4_dropShadow_566_340"/>
<feColorMatrix in="SourceAlpha" type="matrix" values="0 0 0 0 0 0 0 0 0 0 0 0 0 0 0 0 0 0 127 0" result="hardAlpha"/>
<feOffset dy="26.7377"/>
<feGaussianBlur stdDeviation="29.871"/>
<feColorMatrix type="matrix" values="0 0 0 0 1 0 0 0 0 1 0 0 0 0 1 0 0 0 0.503198 0"/>
<feBlend mode="normal" in2="effect4_dropShadow_566_340" result="effect5_dropShadow_566_340"/>
<feColorMatrix in="SourceAlpha" type="matrix" values="0 0 0 0 0 0 0 0 0 0 0 0 0 0 0 0 0 0 127 0" result="hardAlpha"/>
<feOffset dy="64"/>
<feGaussianBlur stdDeviation="71.5"/>
<feColorMatrix type="matrix" values="0 0 0 0 1 0 0 0 0 1 0 0 0 0 1 0 0 0 0.7 0"/>
<feBlend mode="normal" in2="effect5_dropShadow_566_340" result="effect6_dropShadow_566_340"/>
<feBlend mode="normal" in="SourceGraphic" in2="effect6_dropShadow_566_340" result="shape"/>
</filter>
<filter id="filter1_f_566_340" x="96" y="119" width="66" height="66" filterUnits="userSpaceOnUse" color-interpolation-filters="sRGB">
<feFlood flood-opacity="0" result="BackgroundImageFix"/>
<feBlend mode="normal" in="SourceGraphic" in2="BackgroundImageFix" result="shape"/>
<feGaussianBlur stdDeviation="10" result="effect1_foregroundBlur_566_340"/>
</filter>
<filter id="filter2_f_566_340" x="196" y="48" width="66" height="66" filterUnits="userSpaceOnUse" color-interpolation-filters="sRGB">
<feFlood flood-opacity="0" result="BackgroundImageFix"/>
<feBlend mode="normal" in="SourceGraphic" in2="BackgroundImageFix" result="shape"/>
<feGaussianBlur stdDeviation="10" result="effect1_foregroundBlur_566_340"/>
</filter>
<filter id="filter3_f_566_340" x="263" y="-4" width="62" height="62" filterUnits="userSpaceOnUse" color-interpolation-filters="sRGB">
<feFlood flood-opacity="0" result="BackgroundImageFix"/>
<feBlend mode="normal" in="SourceGraphic" in2="BackgroundImageFix" result="shape"/>
<feGaussianBlur stdDeviation="10" result="effect1_foregroundBlur_566_340"/>
</filter>
<linearGradient id="paint0_linear_566_340" x1="298.623" y1="96.7778" x2="24" y2="96.7778" gradientUnits="userSpaceOnUse">
<stop stop-color="white"/>
<stop offset="0.495192" stop-color="white"/>
<stop offset="1" stop-color="white" stop-opacity="0"/>
</linearGradient>
<linearGradient id="paint1_linear_566_340" x1="130.5" y1="157" x2="130.5" y2="315" gradientUnits="userSpaceOnUse">
<stop stop-color="white"/>
<stop offset="1" stop-color="white" stop-opacity="0"/>
</linearGradient>
<linearGradient id="paint2_linear_566_340" x1="230.5" y1="88" x2="230.5" y2="315" gradientUnits="userSpaceOnUse">
<stop stop-color="white"/>
<stop offset="1" stop-color="white" stop-opacity="0"/>
</linearGradient>
<linearGradient id="paint3_linear_566_340" x1="295.5" y1="38" x2="295.5" y2="315" gradientUnits="userSpaceOnUse">
<stop stop-color="white"/>
<stop offset="1" stop-color="white" stop-opacity="0"/>
</linearGradient>
<clipPath id="clip0_566_340">
<rect width="372" height="222" fill="white"/>
</clipPath>
</defs>
</svg>
